<svg aria-hidden="true" style="position: absolute; width: 0; height: 0; overflow: hidden;" version="1.1" xmlns="http://www.w3.org/2000/svg" xmlns:xlink="http://www.w3.org/1999/xlink">
<defs>
<symbol id="icon-location" viewBox="0 0 32 32">
<path d="M16 0c-5.171 0-9.377 4.207-9.377 9.377 0 1.41 0.305 2.765 0.908 4.029 0.012 0.027 0.025 0.054 0.038 0.080l7.085 13.718c0.26 0.503 0.779 0.82 1.346 0.82s1.086-0.316 1.346-0.82l7.083-13.714c0.012-0.024 0.024-0.047 0.035-0.072 0.606-1.267 0.913-2.627 0.913-4.041 0-5.171-4.206-9.377-9.377-9.377zM16 14.285c-2.706 0-4.908-2.202-4.908-4.908s2.202-4.908 4.908-4.908 4.908 2.202 4.908 4.908c0 2.706-2.202 4.908-4.908 4.908z"></path>
<path d="M19.612 30.182h-7.224c-0.502 0-0.909 0.407-0.909 0.909s0.407 0.909 0.909 0.909h7.224c0.502 0 0.909-0.407 0.909-0.909s-0.407-0.909-0.909-0.909z"></path>
</symbol>
<symbol id="icon-linkedin" viewBox="0 0 32 32">
<path d="M7.449 10.295h-6.424c-0.285 0-0.516 0.231-0.516 0.516v20.638c0 0.285 0.231 0.516 0.516 0.516h6.424c0.285 0 0.516-0.231 0.516-0.516v-20.638c0-0.285-0.231-0.516-0.516-0.516z"></path>
<path d="M4.239 0.035c-2.337 0-4.239 1.9-4.239 4.234 0 2.336 1.902 4.236 4.239 4.236 2.336 0 4.236-1.9 4.236-4.236s-1.9-4.234-4.236-4.234z"></path>
<path d="M23.789 9.782c-2.58 0-4.487 1.109-5.644 2.369v-1.34c0-0.285-0.231-0.516-0.516-0.516h-6.152c-0.285 0-0.516 0.231-0.516 0.516v20.638c0 0.285 0.231 0.516 0.516 0.516h6.41c0.285 0 0.516-0.231 0.516-0.516v-10.211c0-3.441 0.935-4.781 3.333-4.781 2.612 0 2.82 2.149 2.82 4.958v10.034c0 0.285 0.231 0.516 0.516 0.516h6.412c0.285 0 0.516-0.231 0.516-0.516v-11.32c0-5.116-0.976-10.347-8.211-10.347z"></path>
</symbol>
<symbol id="icon-mail" viewBox="0 0 32 32">
<path d="M0 10.2v11.738l8.384-5.45z"></path>
<path d="M32 21.938v-11.738l-8.384 6.288z"></path>
<path d="M16 22.2l-5.571-4.179-10.429 6.779v2.4h32v-2.4l-10.429-6.779z"></path>
<path d="M0 7.2l16 12 16-12v-2.4h-32z"></path>
</symbol>
<symbol id="icon-phone" viewBox="0 0 32 32">
<path d="M23.53 20.188c-0.478-0.272-0.977-0.416-1.445-0.416-0.695 0-1.263 0.318-1.607 0.897-0.545 0.651-1.22 1.413-1.384 1.531-1.268 0.861-2.261 0.763-3.36-0.336l-6.132-6.132c-1.092-1.092-1.192-2.097-0.337-3.358 0.12-0.165 0.881-0.841 1.532-1.386 0.415-0.247 0.7-0.614 0.825-1.065 0.166-0.6 0.044-1.305-0.348-1.992-0.092-0.158-2.291-3.881-4.316-4.953-0.378-0.2-0.804-0.306-1.231-0.306-0.704 0-1.366 0.274-1.863 0.771l-1.355 1.354c-2.143 2.142-2.919 4.571-2.307 7.218 0.51 2.206 1.998 4.553 4.421 6.976l7.85 7.85c3.067 3.067 5.992 4.623 8.692 4.623 0 0 0 0 0 0 1.986 0 3.837-0.844 5.502-2.508l1.354-1.354c0.823-0.823 1.009-2.066 0.466-3.094-1.071-2.026-4.794-4.224-4.958-4.32z"></path>
<path d="M31.466 20.288c-1.97 0-3.573-1.603-3.573-3.573 0-0.295-0.239-0.534-0.534-0.534s-0.534 0.239-0.534 0.534c0 2.559 2.081 4.641 4.641 4.641 0.295 0 0.534-0.239 0.534-0.534s-0.239-0.534-0.534-0.534z"></path>
<path d="M31.068 19.038c0.295 0 0.534-0.239 0.534-0.534s-0.239-0.534-0.534-0.534c-0.473 0-0.857-0.384-0.857-0.857 0-0.295-0.239-0.534-0.534-0.534s-0.534 0.239-0.534 0.534c0 1.061 0.863 1.925 1.925 1.925z"></path>
<path d="M10.646 1.603c1.97 0 3.573 1.603 3.573 3.573 0 0.295 0.239 0.534 0.534 0.534s0.534-0.239 0.534-0.534c0-2.559-2.082-4.641-4.641-4.641-0.295 0-0.534 0.239-0.534 0.534s0.239 0.534 0.534 0.534z"></path>
<path d="M10.511 3.387c0 0.295 0.239 0.534 0.534 0.534 0.472 0 0.856 0.384 0.856 0.857 0 0.295 0.239 0.534 0.534 0.534s0.534-0.239 0.534-0.534c0-1.061-0.863-1.925-1.924-1.925-0.295 0-0.534 0.239-0.534 0.534z"></path>
</symbol>
<symbol id="icon-github" viewBox="0 0 32 32">
<path d="M16 0.396c-8.839 0-16 7.167-16 16 0 7.073 4.584 13.068 10.937 15.183 0.803 0.151 1.093-0.344 1.093-0.772 0-0.38-0.009-1.385-0.015-2.719-4.453 0.964-5.391-2.151-5.391-2.151-0.729-1.844-1.781-2.339-1.781-2.339-1.448-0.989 0.115-0.968 0.115-0.968 1.604 0.109 2.448 1.645 2.448 1.645 1.427 2.448 3.744 1.74 4.661 1.328 0.14-1.031 0.557-1.74 1.011-2.135-3.552-0.401-7.287-1.776-7.287-7.907 0-1.751 0.62-3.177 1.645-4.297-0.177-0.401-0.719-2.031 0.141-4.235 0 0 1.339-0.427 4.4 1.641 1.281-0.355 2.641-0.532 4-0.541 1.36 0.009 2.719 0.187 4 0.541 3.043-2.068 4.381-1.641 4.381-1.641 0.859 2.204 0.317 3.833 0.161 4.235 1.015 1.12 1.635 2.547 1.635 4.297 0 6.145-3.74 7.5-7.296 7.891 0.556 0.479 1.077 1.464 1.077 2.959 0 2.14-0.020 3.864-0.020 4.385 0 0.416 0.28 0.916 1.104 0.755 6.4-2.093 10.979-8.093 10.979-15.156 0-8.833-7.161-16-16-16z"></path>
</symbol>
</defs>
</svg>

